<mxfile host="app.diagrams.net" agent="Mozilla/5.0 (Windows NT 10.0; Win64; x64; rv:141.0) Gecko/20100101 Firefox/141.0" version="28.1.1">
  <diagram name="Page-1" id="hui1EJ4zWyZHraNVzbfI">
    <mxGraphModel dx="557" dy="1285" grid="0" gridSize="10" guides="1" tooltips="1" connect="0" arrows="1" fold="1" page="0" pageScale="1" pageWidth="850" pageHeight="1100" math="0" shadow="0">
      <root>
        <mxCell id="0" />
        <mxCell id="1" parent="0" />
        <mxCell id="j9YtMtbXiyKIqVQSm7Ar-1" value="" style="rounded=0;whiteSpace=wrap;html=1;" parent="1" vertex="1">
          <mxGeometry x="203" y="-9" width="120" height="371" as="geometry" />
        </mxCell>
        <mxCell id="j9YtMtbXiyKIqVQSm7Ar-10" style="edgeStyle=none;curved=1;rounded=0;orthogonalLoop=1;jettySize=auto;html=1;fontSize=12;startSize=8;endSize=8;" parent="1" source="j9YtMtbXiyKIqVQSm7Ar-2" target="j9YtMtbXiyKIqVQSm7Ar-6" edge="1">
          <mxGeometry relative="1" as="geometry" />
        </mxCell>
        <mxCell id="j9YtMtbXiyKIqVQSm7Ar-16" style="edgeStyle=orthogonalEdgeStyle;rounded=0;orthogonalLoop=1;jettySize=auto;html=1;entryX=0;entryY=0.5;entryDx=0;entryDy=0;fontSize=12;startSize=8;endSize=8;" parent="1" source="j9YtMtbXiyKIqVQSm7Ar-2" target="j9YtMtbXiyKIqVQSm7Ar-7" edge="1">
          <mxGeometry relative="1" as="geometry" />
        </mxCell>
        <mxCell id="j9YtMtbXiyKIqVQSm7Ar-2" value="CRM" style="image;aspect=fixed;html=1;points=[];align=center;fontSize=12;image=img/lib/azure2/general/Folder_Blank.svg;" parent="1" vertex="1">
          <mxGeometry x="233" y="75" width="46.82" height="38" as="geometry" />
        </mxCell>
        <mxCell id="j9YtMtbXiyKIqVQSm7Ar-23" style="edgeStyle=orthogonalEdgeStyle;rounded=0;orthogonalLoop=1;jettySize=auto;html=1;fontSize=12;startSize=8;endSize=8;" parent="1" source="j9YtMtbXiyKIqVQSm7Ar-3" target="j9YtMtbXiyKIqVQSm7Ar-19" edge="1">
          <mxGeometry relative="1" as="geometry" />
        </mxCell>
        <mxCell id="j9YtMtbXiyKIqVQSm7Ar-3" value="ERP" style="image;aspect=fixed;html=1;points=[];align=center;fontSize=12;image=img/lib/azure2/general/Folder_Blank.svg;" parent="1" vertex="1">
          <mxGeometry x="225" y="240" width="46.82" height="38" as="geometry" />
        </mxCell>
        <mxCell id="j9YtMtbXiyKIqVQSm7Ar-4" value="" style="rounded=0;whiteSpace=wrap;html=1;movable=1;resizable=1;rotatable=1;deletable=1;editable=1;locked=0;connectable=1;fillColor=none;strokeColor=light-dark(#ffff00, #ededed);" parent="1" vertex="1">
          <mxGeometry x="398" y="20" width="120" height="342" as="geometry" />
        </mxCell>
        <mxCell id="j9YtMtbXiyKIqVQSm7Ar-5" value="crm_sales_detail" style="rounded=1;whiteSpace=wrap;html=1;fillColor=#ffe6cc;strokeColor=#d79b00;" parent="1" vertex="1">
          <mxGeometry x="400" y="53" width="116" height="22" as="geometry" />
        </mxCell>
        <mxCell id="j9YtMtbXiyKIqVQSm7Ar-6" value="crm_cust_info" style="rounded=1;whiteSpace=wrap;html=1;fillColor=#ffe6cc;strokeColor=#d79b00;" parent="1" vertex="1">
          <mxGeometry x="400" y="83" width="116" height="22" as="geometry" />
        </mxCell>
        <mxCell id="j9YtMtbXiyKIqVQSm7Ar-7" value="crm_prd_info" style="rounded=1;whiteSpace=wrap;html=1;fillColor=#ffe6cc;strokeColor=#d79b00;" parent="1" vertex="1">
          <mxGeometry x="400" y="113" width="116" height="22" as="geometry" />
        </mxCell>
        <mxCell id="j9YtMtbXiyKIqVQSm7Ar-15" style="edgeStyle=orthogonalEdgeStyle;rounded=0;orthogonalLoop=1;jettySize=auto;html=1;entryX=0.099;entryY=0.789;entryDx=0;entryDy=0;entryPerimeter=0;fontSize=12;startSize=8;endSize=8;" parent="1" source="j9YtMtbXiyKIqVQSm7Ar-2" target="j9YtMtbXiyKIqVQSm7Ar-5" edge="1">
          <mxGeometry relative="1" as="geometry" />
        </mxCell>
        <mxCell id="j9YtMtbXiyKIqVQSm7Ar-17" value="crm_sales_detail" style="rounded=1;whiteSpace=wrap;html=1;fillColor=#ffe6cc;strokeColor=#d79b00;" parent="1" vertex="1">
          <mxGeometry x="402" y="218" width="116" height="22" as="geometry" />
        </mxCell>
        <mxCell id="j9YtMtbXiyKIqVQSm7Ar-18" value="crm_cust_info" style="rounded=1;whiteSpace=wrap;html=1;fillColor=#ffe6cc;strokeColor=#d79b00;" parent="1" vertex="1">
          <mxGeometry x="402" y="248" width="116" height="22" as="geometry" />
        </mxCell>
        <mxCell id="j9YtMtbXiyKIqVQSm7Ar-19" value="crm_prd_info" style="rounded=1;whiteSpace=wrap;html=1;fillColor=#ffe6cc;strokeColor=#d79b00;" parent="1" vertex="1">
          <mxGeometry x="402" y="278" width="116" height="22" as="geometry" />
        </mxCell>
        <mxCell id="j9YtMtbXiyKIqVQSm7Ar-21" style="edgeStyle=orthogonalEdgeStyle;rounded=0;orthogonalLoop=1;jettySize=auto;html=1;entryX=0.11;entryY=0.808;entryDx=0;entryDy=0;entryPerimeter=0;fontSize=12;startSize=8;endSize=8;" parent="1" source="j9YtMtbXiyKIqVQSm7Ar-3" target="j9YtMtbXiyKIqVQSm7Ar-18" edge="1">
          <mxGeometry relative="1" as="geometry" />
        </mxCell>
        <mxCell id="j9YtMtbXiyKIqVQSm7Ar-22" style="edgeStyle=orthogonalEdgeStyle;rounded=0;orthogonalLoop=1;jettySize=auto;html=1;entryX=0.11;entryY=0.852;entryDx=0;entryDy=0;entryPerimeter=0;fontSize=12;startSize=8;endSize=8;" parent="1" source="j9YtMtbXiyKIqVQSm7Ar-3" target="j9YtMtbXiyKIqVQSm7Ar-17" edge="1">
          <mxGeometry relative="1" as="geometry" />
        </mxCell>
        <mxCell id="j9YtMtbXiyKIqVQSm7Ar-24" value="Bronze layer" style="rounded=1;whiteSpace=wrap;html=1;fillColor=#ffe6cc;strokeColor=#d79b00;" parent="1" vertex="1">
          <mxGeometry x="398" y="-12" width="120" height="26" as="geometry" />
        </mxCell>
        <mxCell id="xbq_PehJABf9mdvSD3c--1" value="" style="rounded=0;whiteSpace=wrap;html=1;movable=1;resizable=1;rotatable=1;deletable=1;editable=1;locked=0;connectable=1;fillColor=none;strokeColor=light-dark(#a4a4a4, #EDEDED);" vertex="1" parent="1">
          <mxGeometry x="558" y="21.5" width="120" height="342" as="geometry" />
        </mxCell>
        <mxCell id="xbq_PehJABf9mdvSD3c--2" value="crm_sales_detail" style="rounded=1;whiteSpace=wrap;html=1;fillColor=#f5f5f5;strokeColor=#666666;fontColor=#333333;" vertex="1" parent="1">
          <mxGeometry x="560" y="54.5" width="116" height="22" as="geometry" />
        </mxCell>
        <mxCell id="xbq_PehJABf9mdvSD3c--3" value="crm_cust_info" style="rounded=1;whiteSpace=wrap;html=1;fillColor=#f5f5f5;strokeColor=#666666;fontColor=#333333;" vertex="1" parent="1">
          <mxGeometry x="560" y="84.5" width="116" height="22" as="geometry" />
        </mxCell>
        <mxCell id="xbq_PehJABf9mdvSD3c--4" value="crm_prd_info" style="rounded=1;whiteSpace=wrap;html=1;fillColor=#f5f5f5;strokeColor=#666666;fontColor=#333333;" vertex="1" parent="1">
          <mxGeometry x="560" y="114.5" width="116" height="22" as="geometry" />
        </mxCell>
        <mxCell id="xbq_PehJABf9mdvSD3c--5" value="crm_sales_detail" style="rounded=1;whiteSpace=wrap;html=1;fillColor=#f5f5f5;strokeColor=#666666;fontColor=#333333;" vertex="1" parent="1">
          <mxGeometry x="562" y="219.5" width="116" height="22" as="geometry" />
        </mxCell>
        <mxCell id="xbq_PehJABf9mdvSD3c--6" value="crm_cust_info" style="rounded=1;whiteSpace=wrap;html=1;fillColor=#f5f5f5;strokeColor=#666666;fontColor=#333333;" vertex="1" parent="1">
          <mxGeometry x="562" y="249.5" width="116" height="22" as="geometry" />
        </mxCell>
        <mxCell id="xbq_PehJABf9mdvSD3c--7" value="crm_prd_info" style="rounded=1;whiteSpace=wrap;html=1;fillColor=#f5f5f5;strokeColor=#666666;fontColor=#333333;" vertex="1" parent="1">
          <mxGeometry x="562" y="279.5" width="116" height="22" as="geometry" />
        </mxCell>
        <mxCell id="xbq_PehJABf9mdvSD3c--8" value="layer" style="rounded=1;whiteSpace=wrap;html=1;fillColor=#f5f5f5;strokeColor=#666666;fontColor=#333333;" vertex="1" parent="1">
          <mxGeometry x="558" y="-10.5" width="120" height="26" as="geometry" />
        </mxCell>
      </root>
    </mxGraphModel>
  </diagram>
</mxfile>
